<!-- Generated by IcoMoon.io -->
<svg version="1.1" xmlns="http://www.w3.org/2000/svg" width="512" height="448" viewBox="0 0 512 448">
<g id="icomoon-ignore">
</g>
<path fill="#000" d="M456 224c31 0 56 25 56 56v96c0 4.5-3.5 8-8 8h-24v16c0 26.5-21.5 48-48 48s-48-21.5-48-48v-16h-256v16c0 26.5-21.5 48-48 48s-48-21.5-48-48v-16h-24c-4.5 0-8-3.5-8-8v-96c0-31 25-56 56-56h7l26.25-104.75c7.75-31.5 38.25-55.25 70.75-55.25h32v-56c0-4.5 3.5-8 8-8h112c4.5 0 8 3.5 8 8v56h32c32.5 0 63 23.75 70.75 55.25l26.25 104.75h7zM80 344c22 0 40-18 40-40s-18-40-40-40-40 18-40 40 18 40 40 40zM129 224h254l-22.25-89.25c-0.75-2.75-5.75-6.75-8.75-6.75h-192c-3 0-8 4-8.75 6.75zM432 344c22 0 40-18 40-40s-18-40-40-40-40 18-40 40 18 40 40 40z"></path>
</svg>
