<svg xmlns="http://www.w3.org/2000/svg" aria-hidden="true" style="position:absolute;width:0;height:0;overflow:hidden">
  <defs>
    <!-- Меню и навигация -->
    <symbol id="icon-menu_btn" viewBox="0 0 32 32">
      <path d="M4 7h24v2H4V7zm0 8h24v2H4v-2zm0 8h24v2H4v-2z"/>
    </symbol>
    <symbol id="icon-close-black" viewBox="0 0 32 32">
      <path d="M23.733 10.304 22.229 8.8l-5.963 5.963L10.303 8.8l-1.504 1.504 5.963 5.963-5.963 5.963 1.504 1.504 5.963-5.963 5.963-5.963 1.504-1.504-5.963-5.963 5.963-5.963z"/>
    </symbol>
    
    <!-- Социальные сети -->
    <symbol id="icon-instagram-2" viewBox="0 0 32 32">
      <path d="M16.66 0h-1.32C7.07 0 0 7.07 0 15.34v1.32C0 24.93 7.07 32 15.34 32h1.32C24.93 32 32 24.93 32 16.66v-1.32C32 7.07 24.93 0 16.66 0zm8.84 23.34c-.12.42-.36.8-.68 1.09-.32.29-.72.48-1.14.55-.42.07-.86.01-1.25-.17-.39-.18-.72-.47-.95-.84-.23-.37-.35-.79-.35-1.22s.12-.85.35-1.22c.23-.37.56-.66.95-.84.39-.18.83-.24 1.25-.17.42.07.82.26 1.14.55.32.29.56.67.68 1.09.12.42.12.86 0 1.28zm-3.34-8.13c-.33-.33-.73-.59-1.17-.77-.44-.18-.91-.27-1.38-.27s-.94.09-1.38.27c-.44.18-.84.44-1.17.77-.33.33-.59.73-.77 1.17-.18.44-.27.91-.27 1.38s.09.94.27 1.38c.18.44.44.84.77 1.17.33.33.73.59 1.17.77.44.18.91.27 1.38.27s.94-.09 1.38-.27c.44-.18.84-.44 1.17-.77.33-.33.59-.73.77-1.17.18-.44.27-.91.27-1.38s-.09-.94-.27-1.38c-.18-.44-.44-.84-.77-1.17zm-8.5 8.13c-.12.42-.36.8-.68 1.09-.32.29-.72.48-1.14.55-.42.07-.86.01-1.25-.17-.39-.18-.72-.47-.95-.84-.23-.37-.35-.79-.35-1.22s.12-.85.35-1.22c.23-.37.56-.66.95-.84.39-.18.83-.24 1.25-.17.42.07.82.26 1.14.55.32.29.56.67.68 1.09.12.42.12.86 0 1.28zm-3.34-8.13c-.33-.33-.73-.59-1.17-.77-.44-.18-.91-.27-1.38-.27s-.94.09-1.38.27c-.44.18-.84.44-1.17.77-.33.33-.59.73-.77 1.17-.18.44-.27.91-.27 1.38s.09.94.27 1.38c.18.44.44.84.77 1.17.33.33.73.59 1.17.77.44.18.91.27 1.38.27s.94-.09 1.38-.27c.44-.18.84-.44 1.17-.77.33-.33.59-.73.77-1.17.18-.44.27-.91.27-1.38s-.09-.94-.27-1.38c-.18-.44-.44-.84-.77-1.17zm-4.16-6.87c-.12.42-.36.8-.68 1.09-.32.29-.72.48-1.14.55-.42.07-.86.01-1.25-.17-.39-.18-.72-.47-.95-.84-.23-.37-.35-.79-.35-1.22s.12-.85.35-1.22c.23-.37.56-.66.95-.84.39-.18.83-.24 1.25-.17.42.07.82.26 1.14.55.32.29.56.67.68 1.09.12.42.12.86 0 1.28zm16.84-1.28c-.12-.42-.36-.8-.68-1.09-.32-.29-.72-.48-1.14-.55-.42-.07-.86-.01-1.25.17-.39.18-.72.47-.95.84-.23.37-.35.79-.35 1.22s.12.85.35 1.22c.23.37.56.66.95.84.39.18.83.24 1.25.17.42-.07.82-.26 1.14-.55.32-.29.56-.67.68-1.09.12-.42.12-.86 0-1.28z"/>
    </symbol>
    <symbol id="icon-twitter-1" viewBox="0 0 32 32">
      <path d="M21.26 14.38c0-3.87-3.86-7.02-8.63-7.02s-8.63 3.15-8.63 7.02c0 3.5 3.13 6.41 7.36 6.95-.23.8-.6 2.12-1.09 3.07-.17.32.05.32.23.23.13-.06 1.54-.91 2.67-1.67.47.06.95.09 1.45.09 4.77 0 8.63-3.15 8.63-7.02zm-11.45-1.08c-.6 0-1.09-.49-1.09-.1.08s.49-1.08 1.09-1.08 1.09.49 1.09 1.08-.49 1.08-1.09 1.08zm5.63 0c-.6 0-1.09-.49-1.09-1.08s.49-1.08 1.09-1.08 1.09.49 1.09 1.08-.49 1.08-1.09 1.08z"/>
      <path d="M28 19.38c0-3.22-3.22-5.85-7.19-5.85-.23 0-.47.01-.7.03.03-.19.05-.38.05-.58 0-4.34-4.33-7.88-9.67-7.88S.82 8.64.82 12.98c0 2.12 1.04 4.03 2.67 5.4-.3.9-.79 2.37-1.22 3.44-.19.36.06.36.26.26.14-.07 1.73-1.02 3-1.87.82.22 1.7.34 2.61.34.26 0 .52-.01.78-.03-.05.19-.08.39-.08.59 0 4.34 4.33 7.88 9.67 7.88 1.03 0 2.02-.13 2.93-.38 1.08.72 2.4 1.52 2.52 1.58.19.1.44.1.26-.26-.37-.91-.78-2.14-1.04-2.89 1.47-1.31 2.4-3.08 2.4-5.04zm-14.22-1.08c-.6 0-1.09-.49-1.09-.1.08s.49-1.08 1.09-1.08 1.09.49 1.09 1.08-.49 1.08-1.09 1.08zm5.63 0c-.6 0-1.09-.49-1.09-.1.08s.49-1.08 1.09-1.08 1.09.49 1.09 1.08-.49 1.08-1.09 1.08z"/>
    </symbol>
    <symbol id="icon-facebook-1" viewBox="0 0 32 32">
      <path d="M16 0C7.164 0 0 7.164 0 16s7.164 16 16 16 16-7.164 16-16S24.836 0 16 0zm7.744 10.934-2.522 11.894c-.178.8-.668 1.002-1.356.624l-3.744-2.762-1.804 1.738c-.2.2-.368.368-.756.368l.268-3.8 6.912-6.244c.3-.268-.066-.416-.466-.15l-8.55 5.384-3.684-1.15c-.8-.234-.816-.8.166-1.184l14.39-5.55c.668-.25 1.246.166 1.046 1.032z"/>
    </symbol>
    <symbol id="icon-linkedin-1" viewBox="0 0 32 32">
      <path d="M31.992 32v-.001H32V20.263c0-5.741-1.236-10.164-7.948-10.164-3.227 0-5.392 1.771-6.276 3.449h-.093v-2.913h-6.364v21.364h6.627V21.42c0-2.785.528-5.479 3.977-5.479 3.399 0 3.449 3.179 3.449 5.657v10.401h6.62zM.528 10.636h6.635V32H.528V10.636zM3.843 0C1.722 0 0 1.721 0 3.843s1.721 3.879 3.843 3.879c2.121 0 3.843-1.757 3.843-3.879A3.846 3.846 0 0 0 3.843 0z"/>
    </symbol>
    <symbol id="icon-frame-3" viewBox="0 0 32 32">
      <path d="M32 2.667 0 13.865v1.716l11.869 4.124 4.124 11.869h1.716L29.333 0 32 2.667z"/>
      <path d="m0 13.865 11.869 4.124 4.124 11.869L0 13.865z"/>
    </symbol>
    
    <!-- Иконки для секций -->
    <symbol id="icon-antenna" viewBox="0 0 32 32">
      <path d="m30.773 22.098-8.443-8.505.937-4.615c.242.094.499.144.758.146h.006a2.159 2.159 0 1 0-2.008-1.435l-4.96.605L8.972.161a.534.534 0 0 0-.377-.16.532.532 0 0 0-.373.155L6.709 1.66a.534.534 0 0 0 0 .754l.814.826a14.943 14.943 0 0 0 2.519 17.663.513.513 0 0 0 .146.098c-.034.18-.051.364-.052.547v6.187h-6.4a2.67 2.67 0 0 0-2.667 2.667v1.067c0 .295.239.533.533.533h24.533a.533.533 0 0 0 .533-.533v-1.067a2.67 2.67 0 0 0-2.667-2.667h-6.4v-2.742a15.09 15.09 0 0 0 3.049.32 14.854 14.854 0 0 0 7.04-1.783l.818.823a.534.534 0 0 0 .377.16.532.532 0 0 0 .373-.155l1.513-1.504a.534.534 0 0 0 0-.754zM23.28 6.233a1.067 1.067 0 1 1 .753 1.822h-.003a1.067 1.067 0 0 1-.747-1.823h-.002zm-1.256 3.505-.598 2.946-1.175-1.182 1.774-1.763zm-.605-.902-1.92 1.909-1.485-1.493 3.405-.415zM24.004 28.8a1.6 1.6 0 0 1 1.6 1.6v.533H2.137V30.4a1.6 1.6 0 0 1 1.6-1.6h20.267zm-7.467-2.133v1.067h-5.333v-1.067h5.333zM11.204 25.6v-4.053c0-1.294 1.196-2.347 2.667-2.347s2.667 1.053 2.667 2.347V25.6h-5.333zm6.4-1.696v-2.357c0-1.882-1.675-3.413-3.733-3.413a3.8 3.8 0 0 0-3.281 1.786A13.87 13.87 0 0 1 8.311 4.033l18.602 18.708a13.818 13.818 0 0 1-9.309 1.163zm11.289-.684L7.836 2.039l.755-.752 7.935 7.98c.004 0 .006.007.01.01l13.115 13.191-.757.752z"/>
      <path d="M13.876 20.267h-.005a1.6 1.6 0 1 0-.004 3.2h.005a1.6 1.6 0 1 0 .004-3.2zm.373 1.978a.534.534 0 0 1-.752-.756.534.534 0 0 1 .373-.155.534.534 0 0 1 .374.911h.005z"/>
    </symbol>
    <symbol id="icon-clock" viewBox="0 0 32 32">
      <path d="M31.297 15.301C31.295 6.849 24.442-.002 15.989 0S.686 6.855.688 15.308a15.304 15.304 0 0 0 10.649 14.576.662.662 0 0 0 .529-.065.637.637 0 0 0 .283-.356l3.865-12.25a1.912 1.912 0 1 0-.84-3.635l-5.106-5.107a.637.637 0 0 0-.902.902l5.103 5.109a1.876 1.876 0 0 0 .536 2.309l-3.683 11.673C3.844 25.783.118 17.71 2.799 10.432S13.553-.572 20.831 2.109s11.004 10.754 8.323 18.032a14.042 14.042 0 0 1-7.462 7.973l-.398-1.874a.638.638 0 0 0-1.048-.344l-3.837 3.426a.637.637 0 0 0 .231 1.084l4.899 1.563a.638.638 0 0 0 .819-.74l-.391-1.839a15.255 15.255 0 0 0 9.329-14.089zm-15.305-.637a.638.638 0 1 1 0 1.277.638.638 0 0 1 0-1.277zm2.101 14.864 2.184-1.948.603 2.84-2.787-.892z"/>
      <path d="M15.354 3.185V4.46a.638.638 0 1 0 1.276 0V3.185a.638.638 0 0 0-1.276 0zM3.876 14.664a.638.638 0 0 0 0 1.276h1.275a.638.638 0 1 0 0-1.276H3.876zM28.108 15.939a.638.638 0 1 0 0-1.276h-1.275a.638.638 0 0 0 0 1.276h1.275z"/>
    </symbol>
    <symbol id="icon-diagram" viewBox="0 0 32 32">
      <path d="M14.926 14.965h1.066v4.798h-1.066v-4.797zM19.19 17.097h1.066v2.665H19.19v-2.665zM10.661 18.696h1.066v1.066h-1.066v-1.066zM7.463 18.163h1.066v1.599H7.463v-1.599z"/>
      <path d="M1.599 28.291h25.587a1.6 1.6 0 0 0 1.599-1.599V24.56a1.6 1.6 0 0 0-1.599-1.599h-.533V9.668L29.681 6.8a1.608 1.608 0 1 0-.746-.763L26.654 8.2V6.97a1.6 1.6 0 0 0-1.599-1.599H3.733A1.6 1.6 0 0 0 2.134 6.97v15.992h-.533a1.6 1.6 0 0 0-1.599 1.599v2.132a1.6 1.6 0 0 0 1.599 1.599zM30.384 4.837a.533.533 0 1 1 0 1.067.533.533 0 0 1 0-1.067zM3.198 6.969c0-.294.239-.533.533-.533h21.322c.294 0 .533.239.533.533v2.239l-1.066 1.013V8.035a.533.533 0 0 0-.533-.533H4.797a.533.533 0 0 0-.533.533v13.326c0 .294.239.533.533.533h19.19a.533.533 0 0 0 .533-.533v-9.674l1.066-1.01v12.284H3.198V6.969zm4.798 6.93a1.598 1.598 0 1 0 1.107 2.749l1.853.93a.532.532 0 0 0 .636-.123l3.939-4.431 3.872 2.901a.533.533 0 0 0 .686-.039l3.365-3.188v8.131H5.33V8.569h18.124v2.66l-3.771 3.572-3.904-2.927a.533.533 0 0 0-.718.072l-3.993 4.493-1.493-.746c.011-.064.018-.129.02-.193a1.6 1.6 0 0 0-1.599-1.599zm.533 1.599a.533.533 0 1 1-1.066 0 .533.533 0 0 1 1.066 0zm3.198 8.529h5.331v.533a.533.533 0 0 1-.533.533h-4.264a.533.533 0 0 1-.533-.533v-.533zm-10.661.533c0-.294.239-.533.533-.533h9.062v.533a1.6 1.6 0 0 0 1.599 1.599h4.264a1.6 1.6 0 0 0 1.599-1.599v-.533h9.062c.294 0 .533.239.533.533v2.132a.533.533 0 0 1-.533.533H1.598a.533.533 0 0 1-.533-.533V24.56z"/>
    </symbol>
    <symbol id="icon-astronaut" viewBox="0 0 32 32">
      <path d="M31.974 4.524a.534.534 0 0 0-.43-.363l-1.91-.278-.855-1.731c-.179-.365-.777-.365-.956 0l-.855 1.731-1.91.278a.535.535 0 0 0-.296.91l1.383 1.348-.326 1.903c-.034.2.048.402.212.522a.53.53 0 0 0 .562.04l1.709-.899 1.709.899a.536.536 0 0 0 .775-.563l-.326-1.903 1.383-1.348a.536.536 0 0 0 .135-.547zm-2.463 1.327a.534.534 0 0 0-.153.472l.191 1.114-1-.526a.533.533 0 0 0-.498 0l-1.001.526.191-1.114a.534.534 0 0 0-.153-.472l-.81-.789 1.119-.163a.532.532 0 0 0 .402-.292l.5-1.013.5 1.013a.535.535 0 0 0 .402.292l1.119.163-.809.789zM26.133 20.522h-1.067v1.067h1.067v-1.067zM26.133 22.656h-1.067v1.067h1.067v-1.067zM27.2 21.589h-1.067v1.067H27.2v-1.067zM25.067 21.589H24v1.067h1.067v-1.067zM22.4 26.389h-1.067v1.067H22.4v-1.067zM22.4 28.522h-1.067v1.067H22.4v-1.067zM23.467 27.456H22.4v1.067h1.067v-1.067zM21.333 27.456h-1.067v1.067h1.067v-1.067zM16 24.256h-1.067v1.067H16v-1.067zM16 26.389h-1.067v1.067H16v-1.067zM17.067 25.322H16v1.067h1.067v-1.067zM14.933 25.322h-1.067v1.067h1.067v-1.067zM5.867 6.122H4.8v1.067h1.067V6.122zM5.867 8.255H4.8v1.067h1.067V8.255z"/><path d="M6.933 7.189H5.866v1.067h1.067V7.189zM4.8 7.189H3.733v1.067H4.8V7.189z"/><path d="M24.715 14.159a1.775 1.775 0 0 0-1.188-.705 1.778 1.778 0 0 0-1.34.352l-1.252.96-1.898 1.417-1.358-.541c2.421-1.086 4.114-3.508 4.114-6.32 0-3.823-3.123-6.933-6.961-6.933s-6.961 3.11-6.961 6.933a6.86 6.86 0 0 0 1.12 3.758l-2.764-.024h-.005c-.009 0-.015.004-.023.005a.515.515 0 0 0-.155.031l-.038.013c-.006.003-.013.003-.019.006l-3.233 1.596-.001.001-1.893.911a.397.397 0 0 0-.063.035 1.779 1.779 0 0 0-.598 2.295c.22.429.595.745 1.056.889a1.776 1.776 0 0 0 1.378-.128l1.388-.738 2.264-1.169 1.357-.008L2.2 22.211l-.002.001-1.339 1.333c-.316.315-.49.732-.49 1.178s.174.863.49 1.179c.325.323.752.485 1.179.485s.854-.162 1.18-.485l1.314-1.309 1.741-1.3.901.897-1.762 1.754-.002.001-1.339 1.333c-.316.315-.49.732-.49 1.178s.174.863.49 1.179c.325.323.753.485 1.18.485s.855-.162 1.18-.485l3.482-3.467.001-.002 1.01-1-.004-.004c.006-.006.015-.009.022-.015l5.166-5.658 3.471.494a.52.52 0 0 0 .262-.033c.018-.006.033-.015.05-.023.019-.01.039-.015.058-.027l3.213-2.133c.012-.008.018-.021.029-.029.013-.01.029-.014.041-.026l1.271-1.191c.662-.62.753-1.635.212-2.362zM2.13 17.77a.714.714 0 0 1-.558.052.717.717 0 0 1-.213-1.26l1.314-.632.449 1.312-.992.528zm3.498-1.828-1.548.8-.439-1.283 2.027-1.001-.04 1.484zm15.099-6.62a5.79 5.79 0 0 1-.599 2.559l-4.181-1.899a1.863 1.863 0 0 0-.788-1.388l1.464-4.86c2.378.756 4.105 2.974 4.105 5.588zm-11.789 0c0-3.235 2.644-5.867 5.894-5.867.253 0 .5.021.745.052l-1.432 4.754c-.019-.001-.037-.006-.057-.006-1.033 0-1.873.837-1.873 1.867s.84 1.867 1.873 1.867c.694 0 1.294-.383 1.618-.945l3.862 1.755a5.894 5.894 0 0 1-4.737 2.39c-3.25 0-5.894-2.632-5.894-5.867zm5.956.8c0 .441-.362.8-.806.8s-.806-.359-.806-.8c0-.441.362-.8.806-.8s.806.359.806.8zM2.465 25.146a.608.608 0 0 1-.854.001.592.592 0 0 1 0-.844l.962-.958.851.848-.959.955zm3.214 3.734a.608.608 0 0 1-.855.001.592.592 0 0 1 0-.844l.963-.959.852.848-.96.955zm3.481-3.469-.002.001-1.765 1.76-.852-.848 1.763-1.755.002-.001c.04-.04.065-.088.09-.135.007-.014.02-.026.026-.04.017-.041.019-.085.026-.129.003-.025.014-.047.014-.073 0-.036-.013-.07-.02-.106-.006-.032-.006-.065-.019-.095a.55.55 0 0 0-.091-.138c-.01-.012-.014-.027-.025-.038h-.001l-.001-.002-1.607-1.6c-.017-.017-.039-.024-.058-.038a.507.507 0 0 0-.087-.058.515.515 0 0 0-.093-.033.507.507 0 0 0-.103-.02.5.5 0 0 0-.095.005.53.53 0 0 0-.104.02.477.477 0 0 0-.094.045c-.02.011-.042.015-.061.029L4.23 23.486l-.901-.897 2.399-2.386 4.361 4.289-.928.919zm6.819-7.017c-.015-.002-.03.004-.045.003a.556.556 0 0 0-.3.075.492.492 0 0 0-.083.061c-.013.011-.028.017-.04.029l-4.698 5.146-4.328-4.257 2.833-2.818a.534.534 0 0 0-.379-.911v-.001l-2.219.013.028-1.607 3.104.027a6.947 6.947 0 0 0 4.981 2.101c.437 0 .864-.045 1.279-.123.04.032.079.065.13.085l2.41.96.152.758.178.885-3.003-.427zm4.041.178-.313-1.558 1.446-1.08.947 1.257-2.08 1.381zm3.754-2.831-.838.785-.931-1.236.831-.637a.735.735 0 0 1 .543-.143.718.718 0 0 1 .48.284.713.713 0 0 1-.085.947z"/>
      <path d="m13.602 18.544-2.143-2.133a.534.534 0 0 0-.753 0l-2.142 2.133a.537.537 0 0 0 0 .756l2.142 2.133a.536.536 0 0 0 .753 0l2.143-2.133a.535.535 0 0 0 0-.756zm-2.519 1.759-1.387-1.381 1.387-1.381 1.387 1.381-1.387 1.381zM17.164 5.071l-.258 1.036c.071.018 1.738.452 1.738 2.149h1.067c0-2.017-1.666-2.965-2.547-3.185zM19.711 9.322h-1.067v1.067h1.067V9.322z"/>
    </symbol>
    
    <!-- Новые иконки для разделов -->
    <symbol id="icon-biography" viewBox="0 0 32 32">
      <path d="M16 0C7.163 0 0 7.163 0 16s7.163 16 16 16 16-7.163 16-16S24.837 0 16 0zm0 30c-7.732 0-14-6.268-14-14S8.268 2 16 2s14 6.268 14 14-6.268 14-14 14z"/>
      <path d="M16 8c-2.206 0-4 1.794-4 4s1.794 4 4 4 4-1.794 4-4-1.794-4-4-4zm0 6c-1.103 0-2-.897-2-2s.897-2 2-2 2 .897 2 2-.897 2-2 2zM24 24H8v-2c0-4.418 3.582-8 8-8s8 3.582 8 8v2zm-2-2c0-3.309-2.691-6-6-6s-6 2.691-6 6h12z"/>
    </symbol>
    
    <symbol id="icon-approach" viewBox="0 0 32 32">
      <path d="M30 16c0-7.732-6.268-14-14-14S2 8.268 2 16s6.268 14 14 14 14-6.268 14-14zm-14 12c-6.627 0-12-5.373-12-12S9.373 4 16 4s12 5.373 12 12-5.373 12-12 12z"/>
      <path d="M22.586 16H8v-2h14.586l-4.293-4.293 1.414-1.414L26.414 15l-6.707 6.707-1.414-1.414L22.586 16z"/>
    </symbol>
    
    <symbol id="icon-skills" viewBox="0 0 32 32">
      <path d="M29.334 14.666h-4v-4c0-1.473-1.194-2.666-2.667-2.666h-4V4c0-1.473-1.194-2.666-2.667-2.666h-8C6.527 1.334 5.334 2.527 5.334 4v8c0 1.473 1.194 2.666 2.667 2.666h4v4c0 1.473 1.194 2.666 2.667 2.666h4v4c0 1.473 1.194 2.666 2.667 2.666h8c1.473 0 2.667-1.194 2.667-2.666v-8c0-1.473-1.194-2.666-2.667-2.666zm-21.333-2.666V4h8v8h-8zm10.667 8v-8h8v8h-8zm10.666 8v-8h8v8h-8z"/>
    </symbol>
    
    <symbol id="icon-vision" viewBox="0 0 32 32">
      <path d="M16 6C7.163 6 0 16 0 16s7.163 10 16 10 16-10 16-10-7.163-10-16-10zm0 18c-7.18 0-13.314-7.163-14.707-8.487C2.686 14.163 8.82 8 16 8s13.314 7.163 14.707 8.487C29.314 17.837 23.18 24 16 24z"/>
      <path d="M16 10c-3.309 0-6 2.691-6 6s2.691 6 6 6 6-2.691 6-6-2.691-6-6-6zm0 10c-2.206 0-4-1.794-4-4s1.794-4 4-4 4 1.794 4 4-1.794 4-4 4z"/>
    </symbol>
  </defs>
</svg>